HIERARCHY
ROOT Hips
{
	OFFSET 0.000000 0.000000 0.000000
	CHANNELS 6 Xposition Yposition Zposition Xrotation Yrotation Zrotation
	JOINT Spine
	{
		OFFSET 0.000000 0.000000 0.102259
		CHANNELS 3 Xrotation Yrotation Zrotation
		JOINT Spine1
		{
			OFFSET 0.000000 -0.017757 0.100705
			CHANNELS 3 Xrotation Yrotation Zrotation
			JOINT Spine2
			{
				OFFSET 0.000000 -0.008912 0.101870
				CHANNELS 3 Xrotation Yrotation Zrotation
				JOINT Spine3
				{
					OFFSET 0.000000 0.000000 0.102259
					CHANNELS 3 Xrotation Yrotation Zrotation
					JOINT Neck
					{
						OFFSET 0.000000 0.013148 0.131476
						CHANNELS 3 Xrotation Yrotation Zrotation
						JOINT Neck1
						{
							OFFSET 0.000000 0.003817 0.043628
							CHANNELS 3 Xrotation Yrotation Zrotation
							JOINT Head
							{
								OFFSET 0.000000 0.007605 0.043130
								CHANNELS 3 Xrotation Yrotation Zrotation
								End Site
								{
									OFFSET 0.000000 0.000000 0.097916
								}
							}
						}
					}
					JOINT RightShoulder
					{
						OFFSET 0.000000 0.000000 0.092033
						CHANNELS 3 Xrotation Yrotation Zrotation
						JOINT RightArm
						{
							OFFSET 0.166682 0.000000 0.000000
							CHANNELS 3 Xrotation Yrotation Zrotation
							JOINT RightForeArm
							{
								OFFSET 0.339269 0.000000 0.000000
								CHANNELS 3 Xrotation Yrotation Zrotation
								JOINT RightHand
								{
									OFFSET 0.272813 0.000000 0.000000
									CHANNELS 3 Xrotation Yrotation Zrotation
									End Site
									{
										OFFSET 0.042337 0.031482 -0.014412
									}
									End Site
									{
										OFFSET 0.112899 -0.001086 0.000000
									}
								}
							}
						}
					}
					JOINT LeftShoulder
					{
						OFFSET 0.000000 0.000000 0.092033
						CHANNELS 3 Xrotation Yrotation Zrotation
						JOINT LeftArm
						{
							OFFSET -0.166682 0.000000 0.000000
							CHANNELS 3 Xrotation Yrotation Zrotation
							JOINT LeftForeArm
							{
								OFFSET -0.339269 0.000000 0.000000
								CHANNELS 3 Xrotation Yrotation Zrotation
								JOINT LeftHand
								{
									OFFSET -0.272813 0.000000 0.000000
									CHANNELS 3 Xrotation Yrotation Zrotation
									End Site
									{
										OFFSET -0.042337 0.031482 -0.014412
									}
									End Site
									{
										OFFSET -0.112899 -0.001086 0.000000
									}
								}
							}
						}
					}
				}
			}
		}
	}
	JOINT RightUpLeg
	{
		OFFSET 0.120852 0.000000 0.000000
		CHANNELS 3 Xrotation Yrotation Zrotation
		JOINT RightLeg
		{
			OFFSET 0.000000 0.000000 -0.533302
			CHANNELS 3 Xrotation Yrotation Zrotation
			JOINT RightFoot
			{
				OFFSET 0.000000 0.000000 -0.471812
				CHANNELS 3 Xrotation Yrotation Zrotation
				JOINT RightToeBase
				{
					OFFSET 0.000000 0.169608 -0.043308
					CHANNELS 3 Xrotation Yrotation Zrotation
					End Site
					{
						OFFSET 0.000000 0.063837 0.000000
					}
				}
			}
		}
	}
	JOINT LeftUpLeg
	{
		OFFSET -0.120852 0.000000 0.000000
		CHANNELS 3 Xrotation Yrotation Zrotation
		JOINT LeftLeg
		{
			OFFSET 0.000000 0.000000 -0.533302
			CHANNELS 3 Xrotation Yrotation Zrotation
			JOINT LeftFoot
			{
				OFFSET 0.000000 0.000000 -0.471812
				CHANNELS 3 Xrotation Yrotation Zrotation
				JOINT LeftToeBase
				{
					OFFSET 0.000000 0.169608 -0.043308
					CHANNELS 3 Xrotation Yrotation Zrotation
					End Site
					{
						OFFSET 0.000000 0.064424 0.000000
					}
				}
			}
		}
	}
}
MOTION
Frames: 14
Frame Time: 0.008333
-4.707443 1.086373 2.530205 -104.669708 0.354895 -0.876269 12.222584 -0.093199 0.236300 12.222507 -0.072199 0.243500 -12.256687 1.647656 0.420374 -12.256687 1.647656 0.420374 2.045255 11.232995 -10.519142 -12.439960 5.309081 -9.609814 -31.971260 -0.089153 -9.525812 2.524372 11.512366 -12.456627 -4.826267 59.734557 10.753405 -5.425116 -21.996226 75.771891 0.000015 11.022483 -10.087076 -1.382734 -9.582371 -8.250406 -27.605080 -58.039427 -31.998388 102.909301 -30.575503 6.650016 179.999946 -5.784096 -18.905878 11.941013 2.930606 -20.599762 -3.881000 0.000000 0.000000 8.362734 14.984224 -11.393327 10.619200 0.000000 0.000000 25.499370 0.949266 -8.045311 -20.296500 0.000000 0.000000 0.385108 14.463603 18.623461 13.733400 0.000000 0.000000 
-4.707743 1.086470 2.530876 -104.640508 0.388872 -0.936242 12.107670 -0.056899 0.272300 12.107659 -0.032900 0.276200 -12.241750 1.620450 0.450880 -12.241750 1.620450 0.450880 2.023485 11.203323 -10.419611 -12.445450 5.295848 -9.515393 -31.960171 -0.106342 -9.434916 2.499437 11.457584 -12.393527 -5.365692 59.723521 11.223035 -5.511080 -22.143827 75.642174 0.000040 11.498621 -10.003579 -1.375814 -9.593446 -8.200479 -27.390238 -58.059836 -31.819361 103.061454 -30.826349 6.779768 -179.999984 -5.808656 -18.869317 12.003517 2.875402 -20.512686 -3.991400 0.000000 0.000000 8.376451 14.978632 -11.414587 10.612400 0.000000 0.000000 25.569842 0.917666 -7.919022 -20.413200 0.000000 0.000000 0.293030 14.462289 18.637235 13.766100 0.000000 0.000000 
-4.708113 1.086576 2.531513 -104.623625 0.428221 -0.967329 12.004408 -0.020400 0.304000 12.004367 0.006200 0.304600 -12.234940 1.590845 0.476884 -12.234940 1.590845 0.476884 2.003802 11.190120 -10.332225 -12.445229 5.279576 -9.431174 -31.937678 -0.149088 -9.361432 2.475968 11.393407 -12.346698 -5.968125 59.719765 11.755146 -5.593650 -22.250852 75.498551 0.000003 11.810074 -9.917800 -1.368706 -9.606397 -8.148061 -27.163058 -58.096334 -31.640934 103.118677 -31.088411 6.861876 179.999940 -5.808456 -18.822744 12.073819 2.805610 -20.476343 -4.097300 0.000000 0.000000 8.389586 14.975264 -11.411191 10.604400 0.000000 0.000000 25.650640 0.865911 -7.801897 -20.515800 0.000000 0.000000 0.182112 14.460380 18.659454 13.846500 0.000000 0.000000 
-4.708479 1.086693 2.532146 -104.577732 0.488636 -1.019002 11.881635 -0.005900 0.343500 11.881556 0.024100 0.342700 -12.225987 1.572337 0.513393 -12.225987 1.572337 0.513393 1.980998 11.163629 -10.237744 -12.446624 5.266522 -9.341687 -31.914931 -0.168567 -9.275840 2.451012 11.336900 -12.284426 -6.524457 59.707149 12.241040 -5.664674 -22.327900 75.367192 -0.000004 12.216033 -9.852850 -1.364332 -9.615706 -8.114526 -26.934194 -58.137094 -31.448014 103.254682 -31.358433 6.988483 179.999951 -5.760818 -18.712990 12.123362 2.717942 -20.404674 -4.211900 0.000000 0.000000 8.413806 14.957420 -11.429818 10.598500 0.000000 0.000000 25.680739 0.795753 -7.703747 -20.586300 0.000000 0.000000 0.040991 14.460482 18.744448 13.922600 0.000000 0.000000 
-4.708870 1.086813 2.532816 -104.537911 0.556946 -1.094820 11.754925 0.011100 0.387000 11.754799 0.044799 0.384500 -12.216494 1.552228 0.553503 -12.216494 1.552228 0.553503 1.969806 11.147361 -10.151396 -12.445244 5.248527 -9.257855 -31.900909 -0.211147 -9.202863 2.425269 11.272972 -12.224740 -7.116682 59.703335 12.772853 -5.759834 -22.462366 75.211338 0.000042 12.480450 -9.777021 -1.359319 -9.632943 -8.070963 -26.739546 -58.149471 -31.285843 103.329036 -31.643462 7.085437 -179.999966 -5.699645 -18.645250 12.194246 2.622712 -20.298197 -4.352600 0.000000 0.000000 8.441500 14.951123 -11.455286 10.600900 0.000000 0.000000 25.718583 0.733894 -7.543522 -20.657400 0.000000 0.000000 -0.091436 14.461219 18.788872 13.997600 0.000000 0.000000 
-4.709312 1.086947 2.533563 -104.523737 0.620068 -1.174556 11.629198 0.039699 0.435700 11.629017 0.077598 0.430600 -12.186419 1.520118 0.596310 -12.186419 1.520118 0.596310 1.960201 11.135681 -10.071236 -12.443612 5.242366 -9.180330 -31.887922 -0.231628 -9.129275 2.404882 11.219363 -12.180838 -7.726778 59.686519 13.293255 -5.828147 -22.520631 75.077657 -0.000012 12.792917 -9.733890 -1.351693 -9.628647 -8.029951 -26.506751 -58.220896 -31.098280 103.339031 -31.906943 7.143186 179.999994 -5.633221 -18.614272 12.307088 2.525911 -20.158335 -4.523200 0.000000 0.000000 8.474321 14.953121 -11.503175 10.603000 0.000000 0.000000 25.791370 0.686247 -7.329729 -20.734800 0.000000 0.000000 -0.211841 14.463677 18.774059 14.064700 0.000000 0.000000 
-4.709810 1.087092 2.534218 -104.493630 0.692704 -1.249663 11.508071 0.063198 0.479900 11.507936 0.104796 0.472601 -12.174233 1.490708 0.635515 -12.174233 1.490708 0.635515 1.948285 11.108035 -9.987065 -12.441382 5.230007 -9.100306 -31.871142 -0.245702 -9.051584 2.379952 11.146009 -12.134253 -8.369059 59.681890 13.866287 -5.921782 -22.619514 74.907149 -0.000010 12.981330 -9.663032 -1.341426 -9.613137 -7.982431 -26.227480 -58.331861 -30.890886 103.334114 -32.156745 7.189896 179.999932 -5.592829 -18.587399 12.396943 2.415711 -20.034066 -4.688300 0.000000 0.000000 8.506407 14.966909 -11.539271 10.614700 0.000000 0.000000 25.829692 0.622534 -7.141024 -20.778500 0.000000 0.000000 -0.359019 14.464580 18.792069 14.190100 0.000000 0.000000 
-4.710389 1.087199 2.534904 -104.450850 0.795701 -1.329912 11.369190 0.066697 0.523700 11.368991 0.112095 0.515901 -12.152452 1.469698 0.676523 -12.152452 1.469698 0.676523 1.943835 11.081489 -9.901319 -12.432761 5.217959 -9.018182 -31.849217 -0.261066 -8.971794 2.345683 11.052052 -12.061413 -8.946768 59.699359 14.372209 -5.983179 -22.643530 74.771433 -0.000012 13.251144 -9.634673 -1.332249 -9.613646 -7.927766 -26.010785 -58.407749 -30.684413 103.371990 -32.504146 7.279527 179.999990 -5.578699 -18.566728 12.485825 2.275324 -19.909860 -4.851400 0.000000 0.000000 8.575792 14.926179 -11.602031 10.585700 0.000000 0.000000 25.853508 0.526020 -6.937894 -20.827800 0.000000 0.000000 -0.496519 14.466887 18.820774 14.258000 0.000000 0.000000 
-4.710973 1.087338 2.535608 -104.416810 0.877532 -1.411621 11.237047 0.086096 0.567701 11.236883 0.135194 0.558002 -12.135467 1.445587 0.716128 -12.135467 1.445587 0.716128 1.936273 11.053176 -9.823179 -12.426357 5.201635 -8.943732 -31.828132 -0.281765 -8.901709 2.313262 10.958714 -11.996788 -9.538275 59.711337 14.900638 -6.029083 -22.604364 74.635263 0.000014 13.444423 -9.602640 -1.325868 -9.619583 -7.885505 -25.835181 -58.462618 -30.517322 103.551787 -32.836589 7.446346 -179.999964 -5.559166 -18.481044 12.589809 2.152926 -19.753723 -5.040400 0.000000 0.000000 8.634176 14.912770 -11.673943 10.581400 0.000000 0.000000 25.886951 0.453929 -6.753213 -20.878100 0.000000 0.000000 -0.619124 14.461253 18.822041 14.314600 0.000000 0.000000 
-4.711588 1.087506 2.536306 -104.390468 0.955876 -1.497775 11.105124 0.109894 0.612901 11.104791 0.162891 0.601002 -12.117611 1.417677 0.756231 -12.117611 1.417677 0.756231 1.937716 11.023795 -9.752667 -12.413901 5.190526 -8.876793 -31.804576 -0.287449 -8.834312 2.285598 10.867326 -11.952898 -10.179535 59.714094 15.481736 -6.104331 -22.641922 74.474601 0.000019 13.554901 -9.559671 -1.316693 -9.621575 -7.830275 -25.626550 -58.529338 -30.333639 103.523682 -33.179777 7.498544 -179.999964 -5.513025 -18.418536 12.706210 2.031988 -19.581015 -5.243600 0.000000 0.000000 8.691615 14.902272 -11.748081 10.560900 0.000000 0.000000 25.927213 0.392729 -6.538554 -20.915300 0.000000 0.000000 -0.748280 14.454735 18.798149 14.425900 0.000000 0.000000 
-4.712248 1.087684 2.537017 -104.373992 1.027835 -1.588818 10.977769 0.141891 0.658702 10.977466 0.198787 0.643804 -12.096397 1.388966 0.796034 -12.096397 1.388966 0.796034 1.941513 10.980673 -9.682023 -12.401920 5.178800 -8.810852 -31.785352 -0.276040 -8.763203 2.255233 10.761579 -11.909818 -10.833146 59.723249 16.062220 -6.171352 -22.685813 74.338586 0.000027 13.779332 -9.551245 -1.311344 -9.635066 -7.787758 -25.378817 -58.616085 -30.096999 103.594113 -33.527602 7.607668 -179.999975 -5.451024 -18.384795 12.834927 1.916505 -19.409992 -5.447500 0.000000 0.000000 8.739330 14.886925 -11.813135 10.541000 0.000000 0.000000 25.977371 0.341406 -6.329713 -20.952000 0.000000 0.000000 -0.859773 14.426284 18.763738 14.535400 0.000000 0.000000 
-4.712922 1.087859 2.537698 -104.358574 1.106544 -1.678766 10.853512 0.170887 0.699903 10.853146 0.231284 0.682306 -12.077778 1.356557 0.831133 -12.077778 1.356557 0.831133 1.949465 10.942631 -9.608821 -12.391259 5.165137 -8.741071 -31.775215 -0.276784 -8.692102 2.223441 10.660945 -11.852860 -11.481745 59.729463 16.639535 -6.248804 -22.744953 74.187447 0.000023 13.856248 -9.514021 -1.300131 -9.628500 -7.727485 -25.180756 -58.705612 -29.906196 103.730915 -33.873177 7.755259 -179.999999 -5.455367 -18.385636 12.962659 1.794421 -19.231401 -5.649500 0.000000 0.000000 8.793668 14.882696 -11.888647 10.526600 0.000000 0.000000 26.020441 0.282173 -6.137275 -20.986400 0.000000 0.000000 -0.957137 14.384375 18.731591 14.581300 0.000000 0.000000 
-4.713651 1.088014 2.538452 -104.353487 1.186789 -1.775855 10.726154 0.204383 0.741705 10.725723 0.268279 0.721108 -12.048332 1.324849 0.866332 -12.048332 1.324849 0.866332 1.950926 10.900951 -9.534099 -12.385220 5.143863 -8.670185 -31.767096 -0.290083 -8.624111 2.187705 10.539153 -11.796972 -12.113323 59.757857 17.201412 -6.342148 -22.850940 74.028308 0.000039 13.956543 -9.483018 -1.291425 -9.627777 -7.676775 -24.939661 -58.808831 -29.659281 103.787849 -34.245814 7.862632 179.999990 -5.431630 -18.400462 13.113445 1.667495 -19.045476 -5.868800 0.000000 0.000000 8.850845 14.876226 -11.965275 10.525000 0.000000 0.000000 26.078499 0.224293 -5.930446 -21.024300 0.000000 0.000000 -1.047821 14.343693 18.687662 14.662800 0.000000 0.000000 
-4.714374 1.088154 2.539187 -104.353415 1.260313 -1.865833 10.599139 0.238778 0.782407 10.598747 0.306073 0.758611 -12.014337 1.294240 0.900330 -12.014337 1.294240 0.900330 1.960183 10.856101 -9.468166 -12.375874 5.125621 -8.607981 -31.761461 -0.290032 -8.561011 2.157668 10.423857 -11.762966 -12.735991 59.777693 17.760255 -6.418237 -22.907049 73.880610 0.000015 14.075149 -9.464130 -1.281892 -9.621752 -7.625507 -24.742201 -58.914415 -29.446258 103.837977 -34.619475 7.966456 179.999958 -5.359705 -18.342834 13.266994 1.547886 -18.854039 -6.088100 0.000000 0.000000 8.913167 14.872166 -12.057061 10.527600 0.000000 0.000000 26.146868 0.170448 -5.718325 -21.082600 0.000000 0.000000 -1.115273 14.298478 18.643993 14.733300 0.000000 0.000000 
